<svg xmlns="http://www.w3.org/2000/svg" version="1.1" xmlns:xlink="http://www.w3.org/1999/xlink" xmlns:svgjs="http://svgjs.dev/svgjs" width="1500" height="1500" viewBox="0 0 1500 1500"><rect width="1500" height="1500" fill="#000000"></rect><g transform="matrix(0.6666666666666666,0,0,0.6666666666666666,249.39393939393938,683.3805433458596)"><svg viewBox="0 0 396 53" data-background-color="#dedede" preserveAspectRatio="xMidYMid meet" height="200" width="1500" xmlns="http://www.w3.org/2000/svg" xmlns:xlink="http://www.w3.org/1999/xlink"><g id="tight-bounds" transform="matrix(1,0,0,1,0.2400000000000091,-0.018765979979150416)"><svg viewBox="0 0 395.52 53.037531959958315" height="53.037531959958315" width="395.52"><g><svg viewBox="0 0 585.6863241905307 78.53801865333178" height="53.037531959958315" width="395.52"><g><rect width="7.047402560589762" height="78.53801865333178" x="164.67022382734996" y="0" fill="#ffffff" opacity="1" stroke-width="0" stroke="transparent" fill-opacity="1" class="rect-qz-0" data-fill-palette-color="primary" rx="1%" id="qz-0" data-palette-color="#374151"></rect></g><g transform="matrix(1,0,0,1,190.16632419053073,0.19536820560529833)"><svg viewBox="0 0 395.52 78.14728224212118" height="78.14728224212118" width="395.52"><g id="textblocktransform"><svg viewBox="0 0 395.52 78.14728224212118" height="78.14728224212118" width="395.52" id="textblock"><g><svg viewBox="0 0 395.52 78.14728224212118" height="78.14728224212118" width="395.52"><g transform="matrix(1,0,0,1,0,0)"><svg width="395.52" viewBox="2.56 -40.82 209.92 41.480000000000004" height="78.14728224212118" data-palette-color="#374151"><path d="M36.21-8.35L32.84-0.93Q32.71-0.73 32.24-0.84 31.76-0.95 31.13-0.95 30.49-0.95 29.33-0.7 28.17-0.44 25.68 0.11 23.19 0.66 21.14 0.66L21.14 0.66Q16.5 0.66 12.15-1.53 7.79-3.71 5.18-7.73 2.56-11.74 2.56-17.04 2.56-22.34 5.18-26.64L5.18-26.64Q8.98-32.93 16.65-34.84L16.65-34.84Q19.09-35.45 21.53-35.45L21.53-35.45Q24.88-35.45 29.47-34.33L29.47-34.33Q30.86-33.98 31.82-33.62 32.79-33.25 33.01-33.25L33.01-33.25 33.74-33.45 34.5-33.45Q34.79-33.45 34.79-33.03L34.79-33.03 34.79-25.44Q34.79-25.2 34.35-25.2 33.91-25.2 33.84-25.31 33.76-25.42 33.69-25.57 33.62-25.73 33.53-25.9 33.45-26.07 33.36-26.22 33.28-26.37 33.25-26.44L33.25-26.44Q29.59-33.79 22.14-33.79L22.14-33.79Q15.43-33.79 11.65-29.52 7.86-25.24 7.86-18.2 7.86-11.16 12.02-6.1 16.19-1.05 23.34-1.05L23.34-1.05Q27.25-1.05 30.46-3.37 33.67-5.69 35.5-9.06L35.5-9.06Q35.55-9.2 35.79-9.2L35.79-9.2 36.11-9.2Q36.35-9.2 36.35-8.91 36.35-8.62 36.21-8.35L36.21-8.35ZM55.03-4.03Q55.03-3.39 55.62-3.02 56.22-2.64 57-2.64 57.79-2.64 58.31-3.04 58.84-3.44 59.03-3.44 59.23-3.44 59.23-2.92 59.23-2.39 58.74-2.03L58.74-2.03Q55.08 0.66 53.78 0.66L53.78 0.66Q52.22 0.66 51.24-2.59L51.24-2.59Q51.17-2.83 51.12-2.81L51.12-2.81Q48.09-0.54 47.31-0.07L47.31-0.07Q45.31 1.07 43.3 0.29 41.28-0.49 40.38-2.29L40.38-2.29Q39.94-3.22 39.94-4.27L39.94-4.27Q39.94-6.35 41.48-7.57 43.02-8.79 47.34-9.91L47.34-9.91Q48.8-10.3 49.95-10.91 51.1-11.52 51.16-11.69 51.22-11.87 51.22-12.01L51.22-12.01 51.22-16.7Q51.22-19.46 49.07-20.58L49.07-20.58Q48.36-20.95 47.37-20.95 46.38-20.95 45.37-20.17 44.36-19.38 44.36-17.94L44.36-17.94 44.48-16.99Q44.33-16.7 42.72-16.02 41.11-15.33 40.87-15.28L40.87-15.28Q40.48-15.28 40.48-16.22 40.48-17.16 41.04-18.31 41.6-19.46 42.62-20.41L42.62-20.41Q45.02-22.63 48.09-22.63 51.17-22.63 53.1-20.94 55.03-19.24 55.03-16.89L55.03-16.89 55.03-4.03ZM43.77-4.74Q43.77-3.56 44.68-2.7 45.58-1.83 46.74-1.83 47.9-1.83 49.56-2.82 51.22-3.81 51.22-4.86L51.22-4.86 51.22-9.81Q51.22-10.08 51.1-10.08 50.97-10.08 50.93-10.06L50.93-10.06 45.26-7.42Q44.38-6.79 44.08-6.35 43.77-5.91 43.77-4.74ZM73.38-18.95L73.38-16.7Q73.38-16.16 72.98-16.16 72.58-16.16 72.36-16.75L72.36-16.75Q71.77-18.36 70.61-19.6 69.45-20.85 67.74-20.85L67.74-20.85Q65.5-20.85 64.72-18.6L64.72-18.6Q64.47-17.85 64.47-17.04 64.47-16.24 65.5-15.25 66.52-14.26 68.87-12.89 71.21-11.52 72.29-10.57L72.29-10.57Q74.73-8.4 74.73-5.54 74.73-2.69 72.63-1.01 70.53 0.66 67.74 0.66L67.74 0.66Q66.25 0.66 65.05 0.26 63.84-0.15 63.65-0.15 63.47-0.15 63.07 0.26 62.67 0.66 62.42 0.66L62.42 0.66 62.01 0.66Q61.86 0.66 61.64-1.98 61.42-4.61 61.42-5.1 61.42-5.59 61.51-5.64 61.59-5.69 61.79-5.69 61.98-5.69 62.12-5.57 62.25-5.44 62.35-5.26 62.45-5.08 62.51-4.88 62.57-4.69 62.81-4.15L62.81-4.15Q64.47-0.61 67.94-0.61L67.94-0.61Q69.48-0.61 70.41-1.75 71.33-2.88 71.33-4.27 71.33-5.66 70.6-6.62 69.87-7.57 68.78-8.35 67.7-9.13 66.43-9.86L66.43-9.86Q61.49-12.74 61.49-16.24L61.49-16.24Q61.49-18.85 63.74-20.74 65.99-22.63 68.35-22.63 70.72-22.63 71.86-22.12 72.99-21.61 73.19-21.25 73.38-20.9 73.38-18.95L73.38-18.95ZM84.88-39.58L84.88-18.9Q84.88-18.31 85.05-18.31 85.22-18.31 85.3-18.4 85.37-18.48 86.32-19.53L86.32-19.53Q89.08-22.61 91.91-22.61L91.91-22.61Q95.62-22.61 97.36-20.95L97.36-20.95Q99.48-18.85 99.48-13.89L99.48-13.89 99.48-3.71Q99.48-1.32 102.12-0.93L102.12-0.93Q103.26-0.78 103.26-0.42 103.26-0.05 103.02 0L103.02 0 92.13 0Q91.89-0.05 91.89-0.34L91.89-0.34Q91.89-0.78 93.03-0.93L93.03-0.93Q95.67-1.32 95.67-3.71L95.67-3.71 95.67-13.65Q95.67-17.24 95.16-18.31L95.16-18.31Q94.18-20.46 91.08-20.46L91.08-20.46Q89.18-20.46 87.03-18.84 84.88-17.21 84.88-15.26L84.88-15.26 84.88-3.71Q84.88-1.32 87.52-0.93L87.52-0.93Q88.66-0.78 88.66-0.42 88.66-0.05 88.42 0L88.42 0 77.53 0Q77.29-0.05 77.29-0.34L77.29-0.34Q77.29-0.78 78.43-0.93L78.43-0.93Q81.07-1.32 81.07-3.71L81.07-3.71 81.07-34.16Q81.07-35.18 79.95-35.57L79.95-35.57Q79.46-35.74 78.9-35.85 78.34-35.96 78.01-36.06 77.68-36.16 77.59-36.24 77.51-36.33 77.51-36.61 77.51-36.89 77.87-37.08L77.87-37.08 84.1-40.01Q84.39-40.16 84.47-40.16L84.47-40.16Q84.88-40.16 84.88-39.58L84.88-39.58ZM140.2-8.35L136.83-0.93Q136.71-0.73 136.23-0.84 135.76-0.95 135.12-0.95 134.49-0.95 133.33-0.7 132.17-0.44 129.68 0.11 127.19 0.66 125.14 0.66L125.14 0.66Q120.5 0.66 116.14-1.53 111.78-3.71 109.17-7.73 106.56-11.74 106.56-17.04 106.56-22.34 109.17-26.64L109.17-26.64Q112.98-32.93 120.64-34.84L120.64-34.84Q123.09-35.45 125.53-35.45L125.53-35.45Q128.87-35.45 133.46-34.33L133.46-34.33Q134.85-33.98 135.82-33.62 136.78-33.25 137-33.25L137-33.25 137.73-33.45 138.49-33.45Q138.78-33.45 138.78-33.03L138.78-33.03 138.78-25.44Q138.78-25.2 138.34-25.2 137.91-25.2 137.83-25.31 137.76-25.42 137.69-25.57 137.61-25.73 137.53-25.9 137.44-26.07 137.36-26.22 137.27-26.37 137.25-26.44L137.25-26.44Q133.58-33.79 126.14-33.79L126.14-33.79Q119.42-33.79 115.64-29.52 111.86-25.24 111.86-18.2 111.86-11.16 116.02-6.1 120.18-1.05 127.33-1.05L127.33-1.05Q131.24-1.05 134.45-3.37 137.66-5.69 139.49-9.06L139.49-9.06Q139.54-9.2 139.78-9.2L139.78-9.2 140.1-9.2Q140.35-9.2 140.35-8.91 140.35-8.62 140.2-8.35L140.2-8.35ZM158.78-17.5L158.78-17.5Q158.48-17.55 157.92-17.82L157.92-17.82Q155.9-18.75 154.75-18.75 153.6-18.75 152.34-17.32 151.09-15.89 151.09-14.75L151.09-14.75 151.09-3.71Q151.09-1.88 153.21-1.27L153.21-1.27Q154.14-1.03 154.94-0.92 155.75-0.81 155.98-0.71 156.21-0.61 156.21-0.33 156.21-0.05 155.97 0L155.97 0 143.74 0Q143.49-0.05 143.49-0.34L143.49-0.34Q143.49-0.78 144.64-0.93L144.64-0.93Q147.28-1.32 147.28-3.71L147.28-3.71 147.28-16.63Q147.28-17.65 146.15-18.04L146.15-18.04Q145.67-18.21 145.1-18.32 144.54-18.43 144.21-18.53 143.88-18.63 143.8-18.71 143.71-18.8 143.71-19.08 143.71-19.36 144.08-19.56L144.08-19.56 150.3-22.49Q150.6-22.63 150.67-22.63L150.67-22.63Q151.09-22.63 151.09-22.05L151.09-22.05 151.09-18.09Q151.09-17.8 151.23-17.8L151.23-17.8Q151.43-17.8 152.23-18.95L152.23-18.95Q154.55-22.19 156.07-22.19L156.07-22.19Q156.92-22.19 158.69-21.51 160.46-20.83 160.46-20.36L160.46-20.36Q160.46-19.8 159.9-18.65 159.34-17.5 158.78-17.5ZM177.26-4.03Q177.26-3.39 177.85-3.02 178.45-2.64 179.23-2.64 180.01-2.64 180.54-3.04 181.06-3.44 181.26-3.44 181.45-3.44 181.45-2.92 181.45-2.39 180.97-2.03L180.97-2.03Q177.3 0.66 176.01 0.66L176.01 0.66Q174.45 0.66 173.47-2.59L173.47-2.59Q173.4-2.83 173.35-2.81L173.35-2.81Q170.32-0.54 169.54-0.07L169.54-0.07Q167.54 1.07 165.52 0.29 163.51-0.49 162.61-2.29L162.61-2.29Q162.17-3.22 162.17-4.27L162.17-4.27Q162.17-6.35 163.71-7.57 165.24-8.79 169.57-9.91L169.57-9.91Q171.03-10.3 172.18-10.91 173.32-11.52 173.39-11.69 173.45-11.87 173.45-12.01L173.45-12.01 173.45-16.7Q173.45-19.46 171.3-20.58L171.3-20.58Q170.59-20.95 169.6-20.95 168.61-20.95 167.6-20.17 166.59-19.38 166.59-17.94L166.59-17.94 166.71-16.99Q166.56-16.7 164.95-16.02 163.34-15.33 163.1-15.28L163.1-15.28Q162.7-15.28 162.7-16.22 162.7-17.16 163.27-18.31 163.83-19.46 164.85-20.41L164.85-20.41Q167.25-22.63 170.32-22.63 173.4-22.63 175.33-20.94 177.26-19.24 177.26-16.89L177.26-16.89 177.26-4.03ZM166-4.74Q166-3.56 166.9-2.7 167.81-1.83 168.97-1.83 170.13-1.83 171.79-2.82 173.45-3.81 173.45-4.86L173.45-4.86 173.45-9.81Q173.45-10.08 173.32-10.08 173.2-10.08 173.15-10.06L173.15-10.06 167.49-7.42Q166.61-6.79 166.31-6.35 166-5.91 166-4.74ZM197.13-0.39L197.13-0.39Q197.13 0 196.69 0L196.69 0 183.28 0Q183.04-0.05 183.04-0.34L183.04-0.34Q183.04-0.78 184.19-0.93L184.19-0.93Q186.82-1.32 186.82-3.71L186.82-3.71 186.82-18.51Q186.82-18.77 186.53-18.77L186.53-18.77 183.87-18.77Q183.58-18.77 183.31-18.96 183.04-19.14 183.04-19.45 183.04-19.75 183.33-19.92L183.33-19.92Q183.75-20.17 185.29-20.58 186.82-21 186.82-21.95L186.82-21.95 186.82-22.75Q186.82-31.54 190.63-36.28L190.63-36.28Q192.76-38.94 197.1-40.38L197.1-40.38Q198.42-40.82 199.71-40.82 201.01-40.82 202.74-40.15 204.47-39.48 204.47-38.53L204.47-38.53Q204.47-38.33 204.41-38.18 204.35-38.04 204.28-37.82L204.28-37.82 203.28-35.67Q203.08-35.28 202.81-35.28L202.81-35.28Q202.74-35.28 201.76-36.05 200.79-36.82 199.7-37.46 198.62-38.11 197.15-38.11L197.15-38.11Q194.29-38.11 192.83-36.65 191.36-35.18 191-33.34 190.63-31.49 190.63-29.27L190.63-29.27 190.63-22.17Q190.63-21.97 190.88-21.97L190.88-21.97 195.64-21.97Q196.32-21.97 196.53-21.84 196.74-21.7 196.93-20.96 197.13-20.21 197.13-19.59 197.13-18.97 197-18.87 196.88-18.77 196.49-18.77L196.49-18.77 190.95-18.77Q190.63-18.77 190.63-18.53L190.63-18.53 190.63-4.2Q190.63-0.71 196.69-0.71L196.69-0.71Q197.13-0.66 197.13-0.39ZM212.28-18.77L204.94-18.77Q204.79-18.77 204.79-18.55L204.79-18.55 204.79-5.08Q204.79-3.61 205.44-2.78 206.08-1.95 207.08-1.95 208.09-1.95 208.83-2.28 209.57-2.61 210.12-3 210.67-3.39 211.11-3.72 211.55-4.05 211.89-4.05 212.24-4.05 212.24-3.88L212.24-3.88Q212.24-3.3 212.11-3.13L212.11-3.13Q209.18 0.66 206.46 0.66 203.74 0.66 202.36-1.06 200.98-2.78 200.98-5.18L200.98-5.18 200.98-18.77 199.15-18.77Q198.47-18.77 198.43-19.21 198.39-19.65 198.56-19.78L198.56-19.78Q199.86-20.61 202.13-22.75L202.13-22.75Q202.37-23.02 202.79-23.56 203.2-24.1 204-25.02 204.79-25.95 205.2-25.95 205.62-25.95 205.62-25.61L205.62-25.61Q205.62-25.56 204.79-22.41L204.79-22.41Q204.79-21.97 205.18-21.95L205.18-21.95 211.41-21.95Q212.48-21.95 212.48-18.92L212.48-18.92Q212.48-18.77 212.28-18.77L212.28-18.77Z" opacity="1" transform="matrix(1,0,0,1,0,0)" fill="#ffffff" class="wordmark-text-0" data-fill-palette-color="primary" id="text-0"></path></svg></g></svg></g></svg></g></svg></g><g transform="matrix(1,0,0,1,0,0.19536820560529833)"><svg viewBox="0 0 146.22152602475896 78.14728224212118" height="78.14728224212118" width="146.22152602475896"><g><svg xmlns="http://www.w3.org/2000/svg" xmlns:xlink="http://www.w3.org/1999/xlink" version="1.1" x="0" y="0" viewBox="5 25.9 90 48.1" enable-background="new 0 0 100 100" xml:space="preserve" height="78.14728224212118" width="146.22152602475896" class="icon-icon-0" data-fill-palette-color="accent" id="icon-0"><g fill="#374151" data-fill-palette-color="accent"><path d="M5 25.9v48.1h90V25.9H5zM91 70.1H9V29.9h82V70.1z" fill="#ffffff" data-fill-palette-color="accent"></path><path d="M89 31.9H11v36h78V31.9zM87 58.9h-7v7H20v-7h-7v-18h7v-7h60v7h7V58.9z" fill="#ffffff" data-fill-palette-color="accent"></path><circle cx="27.3" cy="49.9" r="4.7" fill="#ffffff" data-fill-palette-color="accent"></circle><circle cx="72.7" cy="49.9" r="4.7" fill="#ffffff" data-fill-palette-color="accent"></circle><path d="M50.2 37.7c-6.8 0-12.2 5.5-12.2 12.2s5.5 12.2 12.2 12.2 12.2-5.5 12.2-12.2S57 37.7 50.2 37.7zM53.7 55c-0.5 0.7-1.3 1.1-2.3 1.4v2.1h-1.9v-2c-0.6-0.1-1.2-0.2-1.8-0.5-0.6-0.3-1.2-0.6-1.7-1l1.3-2c0.5 0.4 1 0.7 1.5 0.9 0.5 0.2 0.9 0.3 1.4 0.3 0.6 0 1-0.1 1.2-0.3 0.3-0.2 0.4-0.6 0.4-1 0-0.3-0.1-0.6-0.4-0.9-0.3-0.2-0.6-0.5-1-0.7-0.4-0.2-0.8-0.4-1.3-0.7-0.5-0.2-0.9-0.5-1.3-0.8-0.4-0.3-0.7-0.7-1-1.1-0.3-0.4-0.4-0.9-0.4-1.5 0-1 0.3-1.8 0.8-2.4s1.3-1.1 2.2-1.3v-2.1h1.9v2c0.6 0.1 1.2 0.3 1.7 0.6 0.5 0.3 0.9 0.6 1.3 1.1l-1.5 1.7c-0.4-0.3-0.7-0.6-1-0.8-0.3-0.2-0.7-0.3-1.1-0.3-0.5 0-0.8 0.1-1.1 0.3-0.3 0.2-0.4 0.5-0.4 1 0 0.3 0.1 0.6 0.4 0.8 0.3 0.2 0.6 0.4 1 0.6 0.4 0.2 0.8 0.4 1.3 0.6 0.5 0.2 0.9 0.5 1.3 0.8 0.4 0.3 0.7 0.7 1 1.1 0.3 0.4 0.4 1 0.4 1.6C54.5 53.5 54.3 54.4 53.7 55z" fill="#ffffff" data-fill-palette-color="accent"></path></g></svg></g></svg></g></svg></g><defs></defs></svg><rect width="395.52" height="53.037531959958315" fill="none" stroke="none" visibility="hidden"></rect></g></svg></g></svg>